<svg xmlns="http://www.w3.org/2000/svg" width="800" height="1053" viewBox="0 0 800 1053" version="1.1"><path d="M 132.500 32.057 C 107.380 35.447, 83.622 47.280, 65.451 65.451 C 20.014 110.887, 19.814 183.605, 65 228.991 C 100.561 264.709, 153.850 273.693, 198.500 251.497 C 215.925 242.835, 228.899 232.082, 240.309 216.846 C 283.315 159.415, 264.093 76.732, 200.167 44.177 C 183.632 35.757, 169.604 32.142, 151 31.506 C 144.675 31.289, 136.350 31.538, 132.500 32.057" stroke="none" fill="#cc141b" fill-rule="evenodd"/><path d="M 305.936 44.292 C 300.021 47.388, 295.342 54.338, 294.516 61.256 C 294.171 64.140, 294.027 105.011, 294.195 152.079 L 294.500 237.658 297.515 242.535 C 299.711 246.085, 301.986 248.172, 305.880 250.206 L 311.228 253 400 253 L 488.772 253 494.120 250.206 C 498.015 248.171, 500.289 246.085, 502.485 242.534 L 505.500 237.657 505.500 147.578 L 505.500 57.500 502.695 52.728 C 501.152 50.103, 498.035 46.728, 495.768 45.228 L 491.647 42.500 401.010 42.235 L 310.373 41.969 305.936 44.292 M 559.491 43.865 C 554.484 46.140, 549.431 51.796, 547.994 56.733 C 547.226 59.375, 546.988 87.109, 547.199 149.574 L 547.500 238.647 550.259 242.815 C 551.776 245.107, 554.893 248.224, 557.185 249.741 L 561.353 252.500 650.427 252.798 C 712.749 253.007, 740.631 252.768, 743.267 252.003 C 748.203 250.570, 753.860 245.517, 756.135 240.509 C 757.852 236.728, 757.957 231.414, 757.978 147.210 C 757.999 61.288, 757.928 57.780, 756.092 54.210 C 755.042 52.170, 752.904 49.286, 751.342 47.803 C 744.952 41.739, 749.391 41.998, 652.282 42.022 C 568.569 42.043, 563.271 42.148, 559.491 43.865 M 57.821 295.381 C 51.588 297.078, 46.667 300.990, 44.102 306.289 C 42.013 310.604, 42 311.201, 42.022 400.066 C 42.043 484.902, 42.139 489.709, 43.893 493.571 C 46.185 498.618, 51.891 503.436, 57.356 504.940 C 60.351 505.764, 85.918 506, 149.579 505.790 L 237.658 505.500 242.579 502.495 C 246.274 500.239, 248.185 498.139, 250.250 494.066 L 253 488.641 252.978 400.071 C 252.957 316.303, 252.857 311.283, 251.121 307.500 C 248.862 302.576, 244.628 298.239, 240 296.110 C 236.879 294.674, 227.090 294.479, 149.500 294.304 C 81.659 294.151, 61.470 294.388, 57.821 295.381 M 311.500 294.919 C 304.601 296.635, 299.889 300.397, 296.367 307 C 294.591 310.328, 294.487 314.784, 294.229 397.920 C 293.921 497.058, 293.609 492.620, 301.383 499.785 C 303.807 502.020, 307.525 504.330, 309.645 504.919 C 315.008 506.407, 484.992 506.407, 490.355 504.919 C 492.475 504.330, 496.193 502.020, 498.617 499.785 C 506.391 492.620, 506.079 497.058, 505.771 397.920 C 505.500 310.591, 505.498 310.496, 503.347 306.500 C 500.853 301.865, 497.917 298.990, 493 296.367 C 489.667 294.589, 485.330 294.492, 402 294.337 C 353.875 294.247, 313.150 294.509, 311.500 294.919 M 56.239 548.324 C 51.091 550.208, 45.935 554.894, 43.868 559.565 C 42.041 563.695, 41.979 567.311, 42.234 654.344 L 42.500 744.828 45.509 749.110 C 47.331 751.702, 50.477 754.399, 53.482 755.945 L 58.446 758.500 146.973 758.500 C 216.085 758.500, 236.286 758.221, 239.083 757.228 C 243.668 755.599, 248.797 750.606, 251.129 745.500 C 252.854 741.723, 252.957 736.552, 252.978 652.929 L 253 564.359 250.250 558.934 C 248.185 554.861, 246.274 552.761, 242.579 550.505 L 237.658 547.500 148.579 547.315 C 81.651 547.176, 58.689 547.427, 56.239 548.324 M 308.615 548.472 C 306.479 549.234, 302.972 551.574, 300.822 553.674 C 293.690 560.638, 293.924 557.036, 294.229 655.080 C 294.487 738.216, 294.591 742.672, 296.367 746 C 298.990 750.917, 301.865 753.853, 306.500 756.347 L 310.500 758.500 400 758.500 L 489.500 758.500 493.500 756.347 C 498.135 753.853, 501.010 750.917, 503.633 746 C 505.409 742.672, 505.513 738.216, 505.771 655.080 C 506.079 555.942, 506.391 560.380, 498.617 553.215 C 496.193 550.980, 492.475 548.670, 490.355 548.081 C 487.747 547.357, 458.358 547.024, 399.500 547.049 C 328.002 547.081, 311.808 547.334, 308.615 548.472 M 561.885 548.380 C 555.864 550.531, 551.892 554.036, 549.394 559.401 L 547.020 564.500 547.032 653 C 547.043 736.468, 547.148 741.727, 548.866 745.500 C 551.652 751.617, 557.805 756.610, 564.191 757.936 C 567.982 758.723, 595.048 758.972, 655.566 758.777 L 741.555 758.500 746.518 755.945 C 749.523 754.399, 752.669 751.701, 754.491 749.110 L 757.500 744.828 757.777 654.664 C 758.088 553.717, 758.450 559.109, 750.929 552.671 C 748.776 550.829, 745.272 548.799, 743.142 548.161 C 737.255 546.397, 566.857 546.603, 561.885 548.380 M 54.500 801.887 C 52.300 802.911, 49.286 805.042, 47.803 806.624 C 41.737 813.093, 42 808.591, 42 906.008 C 42 991.692, 42.073 995.221, 43.908 998.790 C 44.958 1000.830, 47.096 1003.714, 48.658 1005.197 C 55.048 1011.261, 50.609 1011.002, 147.718 1010.978 C 231.431 1010.957, 236.729 1010.852, 240.509 1009.135 C 245.631 1006.808, 250.619 1001.130, 251.979 996.078 C 252.702 993.393, 252.955 963.703, 252.771 903.242 L 252.500 814.353 249.741 810.185 C 248.224 807.893, 245.107 804.776, 242.815 803.259 L 238.647 800.500 148.573 800.264 C 62.576 800.038, 58.319 800.111, 54.500 801.887 M 305.880 802.794 C 301.985 804.829, 299.711 806.915, 297.515 810.466 L 294.500 815.343 294.500 905.422 L 294.500 995.500 297.305 1000.272 C 298.848 1002.897, 301.965 1006.272, 304.232 1007.772 L 308.354 1010.500 400 1010.500 L 491.646 1010.500 495.768 1007.772 C 498.035 1006.272, 501.152 1002.897, 502.695 1000.272 L 505.500 995.500 505.500 905.422 L 505.500 815.343 502.495 810.422 C 500.238 806.725, 498.140 804.815, 494.066 802.750 L 488.641 800 399.935 800 L 311.228 800 305.880 802.794" stroke="none" fill="#2c9c3c" fill-rule="evenodd"/></svg>